<svg xmlns="http://www.w3.org/2000/svg" viewBox="0 0 64 64"><circle cx="32" cy="32" r="32" fill="#5b9bd5"/><g opacity=".2"><path d="M44 22H20c-1.1 0-2 .9-2 2v20c0 1.1.9 2 2 2h24c1.1 0 2-.9 2-2V24c0-1.1-.9-2-2-2zm-12 20l-6-6 1.4-1.4L32 39.2l10.6-10.6L44 30 32 42z" fill="#231f20"/></g><path fill="#fff" d="M44 20H20c-1.1 0-2 .9-2 2v20c0 1.1.9 2 2 2h24c1.1 0 2-.9 2-2V22c0-1.1-.9-2-2-2zm-12 20l-6-6 1.4-1.4L32 37.2l10.6-10.6L44 28 32 40z"/><path fill="#fff" opacity=".5" d="M26 16h12v4H26z"/><rect x="30" y="16" width="4" height="6" rx="1" fill="#fff"/></svg>
