<svg xmlns="http://www.w3.org/2000/svg" xml:space="preserve" viewBox="0 0 64 64"><style>.st1{opacity:.2}.st2{fill:#231f20}.st3{fill:#4f5d73}.st5{fill:#fff}</style><g id="Layer_1"><circle cx="32" cy="32" r="32" fill="#76c2af"/><g class="st1"><ellipse cx="32" cy="20" rx="16" ry="6" class="st2"/><path d="M16 20v6c0 3.3 7.2 6 16 6s16-2.7 16-6v-6" class="st2"/><path d="M16 26v6c0 3.3 7.2 6 16 6s16-2.7 16-6v-6" class="st2"/><path d="M16 32v6c0 3.3 7.2 6 16 6s16-2.7 16-6v-6" class="st2"/></g><ellipse cx="32" cy="18" rx="16" ry="6" fill="#4f5d73"/><path d="M16 18v6c0 3.3 7.2 6 16 6s16-2.7 16-6v-6" class="st3"/><path fill="#fff" d="M48 18c0 3.3-7.2 6-16 6s-16-2.7-16-6 7.2-6 16-6 16 2.7 16 6z" opacity=".3"/><path d="M16 24v6c0 3.3 7.2 6 16 6s16-2.7 16-6v-6" class="st3"/><path d="M16 30v6c0 3.3 7.2 6 16 6s16-2.7 16-6v-6" class="st3"/><path d="M32 42v8m-5-5 5 5 5-5" fill="none" stroke="#fff" stroke-width="2.5" stroke-linecap="round" stroke-linejoin="round"/></g></svg>
