<svg xmlns="http://www.w3.org/2000/svg" xml:space="preserve" viewBox="0 0 64 64"><style>.st1{opacity:.2}.st2{fill:#231f20}</style><g id="Layer_1"><circle cx="32" cy="32" r="32" fill="#76c2af"/><g class="st1"><path d="M39 16H25c-1.7 0-3 1.3-3 3v28c0 1.7 1.3 3 3 3h14c1.7 0 3-1.3 3-3V19c0-1.7-1.3-3-3-3zm-7 2c1.1 0 2 .9 2 2s-.9 2-2 2-2-.9-2-2 .9-2 2-2zm8 27H24V24h16v21z" class="st2"/></g><path fill="#fff" d="M39 14H25c-1.7 0-3 1.3-3 3v28c0 1.7 1.3 3 3 3h14c1.7 0 3-1.3 3-3V17c0-1.7-1.3-3-3-3zm-7 2c1.1 0 2 .9 2 2s-.9 2-2 2-2-.9-2-2 .9-2 2-2zm8 27H24V22h16v21z"/><g fill="#fff" opacity=".6"><rect x="26" y="25" width="12" height="1.5" rx=".75"/><rect x="26" y="29" width="10" height="1.5" rx=".75"/><rect x="26" y="33" width="12" height="1.5" rx=".75"/><rect x="26" y="37" width="8" height="1.5" rx=".75"/></g></g></svg>
